<svg width="178" height="179" viewBox="0 0 178 179" fill="none" xmlns="http://www.w3.org/2000/svg">
<g filter="url(#filter0_d)">
<path d="M88.9783 5.21875C55.0564 5.21875 26.0924 27.1375 15.3939 57.4062H163.085C152.125 27.1375 123.161 5.21875 88.9783 5.21875Z" fill="#F2B200"/>
<path d="M88.9783 161.781C123.161 161.781 152.125 140.123 162.824 109.594H15.3939C26.0924 140.123 55.0564 161.781 88.9783 161.781Z" fill="#83BF4F"/>
<path d="M15.3936 57.4062C12.5233 65.4953 10.9576 74.3672 10.9576 83.5C10.9576 92.6328 12.5233 101.505 15.3936 109.594H163.084C165.955 101.505 167.52 92.6328 167.52 83.5C167.52 74.3672 165.955 65.4953 163.084 57.4062H15.3936Z" fill="white"/>
<path d="M88.9777 104.375C100.507 104.375 109.853 95.0289 109.853 83.5C109.853 71.9711 100.507 62.625 88.9777 62.625C77.4488 62.625 68.1028 71.9711 68.1028 83.5C68.1028 95.0289 77.4488 104.375 88.9777 104.375Z" fill="#428BC1"/>
<path d="M88.9778 101.766C99.0656 101.766 107.243 93.5878 107.243 83.5C107.243 73.4122 99.0656 65.2344 88.9778 65.2344C78.8899 65.2344 70.7121 73.4122 70.7121 83.5C70.7121 93.5878 78.8899 101.766 88.9778 101.766Z" fill="white"/>
<path d="M82.1932 67.8438C82.9138 67.8438 83.4979 67.2596 83.4979 66.5391C83.4979 65.8185 82.9138 65.2344 82.1932 65.2344C81.4726 65.2344 80.8885 65.8185 80.8885 66.5391C80.8885 67.2596 81.4726 67.8438 82.1932 67.8438Z" fill="#428BC1"/>
<path d="M78.019 70.1919C78.7395 70.1919 79.3236 69.6078 79.3236 68.8872C79.3236 68.1666 78.7395 67.5825 78.019 67.5825C77.2984 67.5825 76.7143 68.1666 76.7143 68.8872C76.7143 69.6078 77.2984 70.1919 78.019 70.1919Z" fill="#428BC1"/>
<path d="M74.6262 73.585C75.3468 73.585 75.9309 73.0008 75.9309 72.2803C75.9309 71.5597 75.3468 70.9756 74.6262 70.9756C73.9057 70.9756 73.3215 71.5597 73.3215 72.2803C73.3215 73.0008 73.9057 73.585 74.6262 73.585Z" fill="#428BC1"/>
<path d="M72.278 77.76C72.9985 77.76 73.5826 77.1759 73.5826 76.4553C73.5826 75.7348 72.9985 75.1506 72.278 75.1506C71.5574 75.1506 70.9733 75.7348 70.9733 76.4553C70.9733 77.1759 71.5574 77.76 72.278 77.76Z" fill="#428BC1"/>
<path d="M70.9733 82.4563C71.6938 82.4563 72.278 81.8722 72.278 81.1516C72.278 80.4311 71.6938 79.8469 70.9733 79.8469C70.2527 79.8469 69.6686 80.4311 69.6686 81.1516C69.6686 81.8722 70.2527 82.4563 70.9733 82.4563Z" fill="#428BC1"/>
<path d="M70.9733 87.1531C71.6938 87.1531 72.278 86.5689 72.278 85.8484C72.278 85.1278 71.6938 84.5437 70.9733 84.5437C70.2527 84.5437 69.6686 85.1278 69.6686 85.8484C69.6686 86.5689 70.2527 87.1531 70.9733 87.1531Z" fill="#428BC1"/>
<path d="M72.278 91.8506C72.9985 91.8506 73.5826 91.2665 73.5826 90.5459C73.5826 89.8253 72.9985 89.2412 72.278 89.2412C71.5574 89.2412 70.9733 89.8253 70.9733 90.5459C70.9733 91.2665 71.5574 91.8506 72.278 91.8506Z" fill="#428BC1"/>
<path d="M74.6262 96.0256C75.3468 96.0256 75.9309 95.4415 75.9309 94.7209C75.9309 94.0004 75.3468 93.4163 74.6262 93.4163C73.9057 93.4163 73.3215 94.0004 73.3215 94.7209C73.3215 95.4415 73.9057 96.0256 74.6262 96.0256Z" fill="#428BC1"/>
<path d="M78.019 99.4185C78.7395 99.4185 79.3236 98.8343 79.3236 98.1138C79.3236 97.3932 78.7395 96.8091 78.019 96.8091C77.2984 96.8091 76.7143 97.3932 76.7143 98.1138C76.7143 98.8343 77.2984 99.4185 78.019 99.4185Z" fill="#428BC1"/>
<path d="M82.1932 101.766C82.9138 101.766 83.4979 101.181 83.4979 100.461C83.4979 99.7404 82.9138 99.1562 82.1932 99.1562C81.4726 99.1562 80.8885 99.7404 80.8885 100.461C80.8885 101.181 81.4726 101.766 82.1932 101.766Z" fill="#428BC1"/>
<path d="M86.6295 102.81C87.3501 102.81 87.9342 102.226 87.9342 101.505C87.9342 100.785 87.3501 100.201 86.6295 100.201C85.909 100.201 85.3248 100.785 85.3248 101.505C85.3248 102.226 85.909 102.81 86.6295 102.81Z" fill="#428BC1"/>
<path d="M90.2825 101.766C90.2825 100.983 90.8043 100.462 91.3262 100.201C92.109 100.201 92.6309 100.723 92.8918 101.244C92.8918 102.027 92.37 102.549 91.8481 102.81C90.8044 103.071 90.2825 102.549 90.2825 101.766Z" fill="#428BC1"/>
<path d="M96.0234 101.766C96.744 101.766 97.3281 101.181 97.3281 100.461C97.3281 99.7404 96.744 99.1562 96.0234 99.1562C95.3029 99.1562 94.7188 99.7404 94.7188 100.461C94.7188 101.181 95.3029 101.766 96.0234 101.766Z" fill="#428BC1"/>
<path d="M100.199 99.4185C100.919 99.4185 101.503 98.8343 101.503 98.1138C101.503 97.3932 100.919 96.8091 100.199 96.8091C99.4781 96.8091 98.894 97.3932 98.894 98.1138C98.894 98.8343 99.4781 99.4185 100.199 99.4185Z" fill="#428BC1"/>
<path d="M103.59 96.0256C104.311 96.0256 104.895 95.4415 104.895 94.7209C104.895 94.0004 104.311 93.4163 103.59 93.4163C102.87 93.4163 102.286 94.0004 102.286 94.7209C102.286 95.4415 102.87 96.0256 103.59 96.0256Z" fill="#428BC1"/>
<path d="M105.939 91.8506C106.659 91.8506 107.243 91.2665 107.243 90.5459C107.243 89.8253 106.659 89.2412 105.939 89.2412C105.218 89.2412 104.634 89.8253 104.634 90.5459C104.634 91.2665 105.218 91.8506 105.939 91.8506Z" fill="#428BC1"/>
<path d="M107.243 87.1531C107.964 87.1531 108.548 86.5689 108.548 85.8484C108.548 85.1278 107.964 84.5437 107.243 84.5437C106.523 84.5437 105.939 85.1278 105.939 85.8484C105.939 86.5689 106.523 87.1531 107.243 87.1531Z" fill="#428BC1"/>
<path d="M107.243 82.4563C106.46 82.4563 105.939 81.9344 105.678 81.4125C105.678 80.6297 106.199 80.1079 106.721 79.8469C107.504 79.8469 108.026 80.3688 108.287 80.8907C108.548 81.6735 108.026 82.1954 107.243 82.4563Z" fill="#428BC1"/>
<path d="M105.939 77.76C106.659 77.76 107.243 77.1759 107.243 76.4553C107.243 75.7348 106.659 75.1506 105.939 75.1506C105.218 75.1506 104.634 75.7348 104.634 76.4553C104.634 77.1759 105.218 77.76 105.939 77.76Z" fill="#428BC1"/>
<path d="M103.59 73.585C104.311 73.585 104.895 73.0008 104.895 72.2803C104.895 71.5597 104.311 70.9756 103.59 70.9756C102.87 70.9756 102.286 71.5597 102.286 72.2803C102.286 73.0008 102.87 73.585 103.59 73.585Z" fill="#428BC1"/>
<path d="M100.199 70.1919C100.919 70.1919 101.503 69.6078 101.503 68.8872C101.503 68.1666 100.919 67.5825 100.199 67.5825C99.4781 67.5825 98.894 68.1666 98.894 68.8872C98.894 69.6078 99.4781 70.1919 100.199 70.1919Z" fill="#428BC1"/>
<path d="M97.328 67.0607C97.067 67.8435 96.2842 68.1044 95.5014 67.8435C94.7186 67.5825 94.4576 66.7997 94.7186 66.0169C94.9795 65.2341 95.7623 64.9731 96.5451 65.2341C97.328 65.756 97.5889 66.5388 97.328 67.0607Z" fill="#428BC1"/>
<path d="M92.6309 65.4956C92.6309 66.2784 91.8481 66.8003 91.0653 66.5393C90.2825 66.5393 89.7606 65.7565 90.0216 64.9737C90.0216 64.1909 90.8044 63.669 91.5872 63.9299C92.37 64.1909 92.8919 64.9737 92.6309 65.4956Z" fill="#428BC1"/>
<path d="M87.9342 65.2347C87.9342 66.0175 87.4123 66.5394 86.8905 66.8003C86.1076 66.8003 85.5858 66.2784 85.3248 65.7566C85.3248 64.9737 85.8467 64.4519 86.3686 64.1909C87.1514 63.93 87.9342 64.4519 87.9342 65.2347Z" fill="#428BC1"/>
<path d="M88.9778 87.4141C91.1395 87.4141 92.8918 85.6617 92.8918 83.5C92.8918 81.3383 91.1395 79.5859 88.9778 79.5859C86.8161 79.5859 85.0637 81.3383 85.0637 83.5C85.0637 85.6617 86.8161 87.4141 88.9778 87.4141Z" fill="#428BC1"/>
<path d="M88.9783 65.2344L88.4565 76.4547L88.9783 83.5L89.7611 76.4547L88.9783 65.2344Z" fill="#428BC1"/>
<path d="M84.2812 65.7568L86.6297 76.9771L88.9781 83.5006L87.9344 76.4553L84.2812 65.7568Z" fill="#428BC1"/>
<path d="M79.845 67.5825L85.0637 77.7591L88.9778 83.4997L86.1075 76.9763L79.845 67.5825Z" fill="#428BC1"/>
<path d="M76.192 70.4531L83.7592 79.0641L88.978 83.5L84.542 78.0203L76.192 70.4531Z" fill="#428BC1"/>
<path d="M73.3215 74.3672L82.7153 80.6297L88.9778 83.5L83.2372 79.325L73.3215 74.3672Z" fill="#428BC1"/>
<path d="M71.4955 78.8037L82.1939 82.1959L88.9783 83.5006L82.4549 81.1521L71.4955 78.8037Z" fill="#428BC1"/>
<path d="M70.7122 83.5006L82.1934 84.0225L88.9778 83.5006L82.1934 82.9788L70.7122 83.5006Z" fill="#428BC1"/>
<path d="M71.4955 88.1969L82.4549 85.8484L88.9783 83.5L82.1939 84.8047L71.4955 88.1969Z" fill="#428BC1"/>
<path d="M73.3215 92.6328L83.2372 87.675L88.9778 83.5L82.7153 86.3703L73.3215 92.6328Z" fill="#428BC1"/>
<path d="M76.192 96.2859L84.542 88.9797L88.978 83.5L83.7592 87.9359L76.192 96.2859Z" fill="#428BC1"/>
<path d="M79.845 99.4172L86.1075 89.7625L88.9778 83.5L85.0637 89.2406L79.845 99.4172Z" fill="#428BC1"/>
<path d="M84.2812 101.244L87.9344 90.5453L88.9781 83.5L86.6297 90.0234L84.2812 101.244Z" fill="#428BC1"/>
<path d="M88.9783 101.766L89.7611 90.5453L88.9783 83.5L88.4565 90.5453L88.9783 101.766Z" fill="#428BC1"/>
<path d="M93.6747 101.244L91.5872 90.0234L88.9778 83.5L90.2825 90.5453L93.6747 101.244Z" fill="#428BC1"/>
<path d="M98.1106 99.4172L93.1528 89.2406L88.9778 83.5L92.109 90.0234L98.1106 99.4172Z" fill="#428BC1"/>
<path d="M102.025 96.2859L94.4575 87.9359L88.9778 83.5L93.6747 88.9797L102.025 96.2859Z" fill="#428BC1"/>
<path d="M104.895 92.6328L95.5012 86.3703L88.9778 83.5L94.7184 87.675L104.895 92.6328Z" fill="#428BC1"/>
<path d="M106.722 88.1969L96.0231 84.8047L88.9778 83.5L95.7622 85.8484L106.722 88.1969Z" fill="#428BC1"/>
<path d="M107.243 83.5006L96.0231 82.7178L88.9778 83.5006L96.0231 84.0225L107.243 83.5006Z" fill="#428BC1"/>
<path d="M106.722 78.8037L95.7622 81.1521L88.9778 83.5006L96.0231 82.1959L106.722 78.8037Z" fill="#428BC1"/>
<path d="M104.895 74.3672L94.7184 79.325L88.9778 83.5L95.5012 80.6297L104.895 74.3672Z" fill="#428BC1"/>
<path d="M102.025 70.7141L93.6747 78.0204L88.9778 83.5L94.4575 79.0641L102.025 70.7141Z" fill="#428BC1"/>
<path d="M98.1106 67.5825L92.109 77.2372L88.9778 83.4997L93.1528 77.7591L98.1106 67.5825Z" fill="#428BC1"/>
<path d="M93.9356 65.7568L90.2825 76.4553L88.9778 83.5006L91.5872 76.9771L93.9356 65.7568Z" fill="#428BC1"/>
</g>
<defs>
<filter id="filter0_d" x="-4" y="-3" width="187" height="187" filterUnits="userSpaceOnUse" color-interpolation-filters="sRGB">
<feFlood flood-opacity="0" result="BackgroundImageFix"/>
<feColorMatrix in="SourceAlpha" type="matrix" values="0 0 0 0 0 0 0 0 0 0 0 0 0 0 0 0 0 0 127 0" result="hardAlpha"/>
<feOffset dy="7"/>
<feGaussianBlur stdDeviation="5"/>
<feColorMatrix type="matrix" values="0 0 0 0 0 0 0 0 0 0 0 0 0 0 0 0 0 0 0.25 0"/>
<feBlend mode="normal" in2="BackgroundImageFix" result="effect1_dropShadow"/>
<feBlend mode="normal" in="SourceGraphic" in2="effect1_dropShadow" result="shape"/>
</filter>
</defs>
</svg>
