<svg width="178" height="179" viewBox="0 0 178 179" fill="none" xmlns="http://www.w3.org/2000/svg">
<g filter="url(#filter0_d)">
<path d="M89 161.781C132.492 161.781 167.75 126.734 167.75 83.5C167.75 40.2665 132.492 5.21875 89 5.21875C45.5076 5.21875 10.25 40.2665 10.25 83.5C10.25 126.734 45.5076 161.781 89 161.781Z" fill="#F5F5F5"/>
<path d="M66.4255 87.9361C73.7755 92.8939 84.013 90.8064 89.0005 83.5001C93.988 76.1939 103.963 74.1064 111.575 79.0642C118.663 83.7611 120.763 92.8939 116.825 99.9392C125.488 85.3267 121.55 66.2783 106.85 56.6236C91.888 46.708 71.6755 50.622 61.7005 65.4955C61.438 66.0173 61.1755 66.5392 60.913 66.8001C57.238 74.3673 59.6005 83.2392 66.4255 87.9361Z" fill="#ED4C5C"/>
<path d="M116.037 101.505C116.3 100.983 116.562 100.461 116.825 100.2C116.562 100.461 116.3 100.983 116.037 101.505Z" fill="#003478"/>
<path d="M111.575 79.0642C104.225 74.1063 93.9874 76.1938 88.9999 83.5001C84.0124 90.8064 74.0374 92.8939 66.4249 87.936C59.3374 83.2392 57.2374 74.1063 61.1749 67.061C52.2499 81.6735 56.4499 100.722 71.1499 110.377C86.1124 120.292 106.325 116.378 116.3 101.505C116.562 100.983 116.825 100.461 117.087 100.2C120.762 92.6329 118.4 83.761 111.575 79.0642Z" fill="#428BC1"/>
<path d="M25.4748 60.7985L43.5873 33.9219L41.7498 32.6172L39.9123 31.5735L21.7998 58.45L23.6373 59.4938L25.4748 60.7985Z" fill="#3E4347"/>
<path d="M30.4625 64.1908L32.3 65.2345L50.15 38.358L48.575 37.3142L46.7375 36.0095L28.625 62.8861L30.4625 64.1908Z" fill="#3E4347"/>
<path d="M53.3002 40.4453L35.4502 67.3219L37.2877 68.6266L39.1252 69.6703L56.9752 42.7937L55.1377 41.75L53.3002 40.4453Z" fill="#3E4347"/>
<path d="M132.312 110.899L134.15 112.203L142.55 99.6783L140.712 98.3736L138.875 97.3298L130.475 109.855L132.312 110.899Z" fill="#3E4347"/>
<path d="M152.525 106.202L144.125 118.727L145.962 120.031L147.8 121.075L156.2 108.55L154.362 107.506L152.525 106.202Z" fill="#3E4347"/>
<path d="M140.975 116.639L149.375 104.114L147.537 102.809L145.7 101.766L137.3 114.291L139.137 115.334L140.975 116.639Z" fill="#3E4347"/>
<path d="M131.262 112.725L129.424 111.681L121.024 124.206L122.862 125.25L124.699 126.555L133.099 114.03L131.262 112.725Z" fill="#3E4347"/>
<path d="M137.825 117.161L136.25 116.117L127.85 128.642L129.425 129.686L131.262 130.991L139.662 118.466L137.825 117.161Z" fill="#3E4347"/>
<path d="M142.812 120.553L134.412 133.078L136.25 134.383L138.087 135.427L146.487 122.902L144.65 121.597L142.812 120.553Z" fill="#3E4347"/>
<path d="M23.6373 107.506L21.7998 108.55L39.9123 135.427L41.7498 134.383L43.5873 133.078L25.4748 106.202L23.6373 107.506Z" fill="#3E4347"/>
<path d="M40.1744 117.161L38.3369 118.466L46.7369 130.991L48.5744 129.686L50.1494 128.642L41.7494 116.117L40.1744 117.161Z" fill="#3E4347"/>
<path d="M37.2877 98.3736L35.4502 99.6783L53.3002 126.555L55.1377 125.25L56.9752 124.206L39.1252 97.3298L37.2877 98.3736Z" fill="#3E4347"/>
<path d="M28.625 104.114L37.025 116.639L38.8625 115.334L40.7 114.291L32.3 101.766L30.4625 102.809L28.625 104.114Z" fill="#3E4347"/>
<path d="M144.65 45.4032L146.487 44.0985L138.087 31.5735L136.25 32.6172L134.412 33.9219L142.812 46.4469L144.65 45.4032Z" fill="#3E4347"/>
<path d="M131.262 54.275L133.099 52.9703L124.699 40.4453L122.862 41.75L121.024 42.7937L129.424 55.3188L131.262 54.275Z" fill="#3E4347"/>
<path d="M144.125 48.2735L152.525 60.7985L154.362 59.4938L156.2 58.45L147.8 45.925L145.962 46.9688L144.125 48.2735Z" fill="#3E4347"/>
<path d="M147.537 64.1908L149.375 62.8861L131.262 36.0095L129.425 37.3142L127.85 38.358L145.7 65.2345L147.537 64.1908Z" fill="#3E4347"/>
<path d="M140.712 68.6266L142.55 67.3219L134.15 54.7969L132.312 56.1016L130.475 57.1453L138.875 69.6703L140.712 68.6266Z" fill="#3E4347"/>
</g>
<defs>
<filter id="filter0_d" x="-5" y="-3" width="188" height="187" filterUnits="userSpaceOnUse" color-interpolation-filters="sRGB">
<feFlood flood-opacity="0" result="BackgroundImageFix"/>
<feColorMatrix in="SourceAlpha" type="matrix" values="0 0 0 0 0 0 0 0 0 0 0 0 0 0 0 0 0 0 127 0" result="hardAlpha"/>
<feOffset dy="7"/>
<feGaussianBlur stdDeviation="5"/>
<feColorMatrix type="matrix" values="0 0 0 0 0 0 0 0 0 0 0 0 0 0 0 0 0 0 0.25 0"/>
<feBlend mode="normal" in2="BackgroundImageFix" result="effect1_dropShadow"/>
<feBlend mode="normal" in="SourceGraphic" in2="effect1_dropShadow" result="shape"/>
</filter>
</defs>
</svg>
