<svg width="177" height="179" viewBox="0 0 177 179" fill="none" xmlns="http://www.w3.org/2000/svg">
<g filter="url(#filter0_d)">
<path d="M10.2188 83.5C10.2188 98.8953 14.6547 113.247 22.2219 125.25H154.517C162.084 113.247 166.52 98.8953 166.52 83.5C166.52 68.1047 162.084 53.7531 154.517 41.75H22.2219C14.6547 53.7531 10.2188 68.1047 10.2188 83.5Z" fill="#FFCE31"/>
<path d="M154.778 41.75C140.949 19.8313 116.42 5.21875 88.5002 5.21875C60.5799 5.21875 36.0517 19.8313 22.222 41.75H154.778Z" fill="#ED4C5C"/>
<path d="M22.222 125.25C36.0517 147.169 60.5799 161.781 88.5002 161.781C116.42 161.781 140.949 147.169 154.778 125.25H22.222Z" fill="#ED4C5C"/>
<path d="M29.0066 74.8892H37.3566V79.586H29.0066V74.8892Z" fill="#C8B100"/>
<path d="M29.0066 109.333H37.6175V113.769H29.0066V109.333Z" fill="#C8B100"/>
<path d="M28.2233 102.026C27.4405 102.548 26.9186 103.07 26.9186 103.331C26.9186 103.591 27.1795 103.852 27.7014 104.113C28.2233 104.374 28.7451 104.896 28.4842 105.418C29.0061 104.896 29.267 104.374 29.267 103.852C29.267 103.07 28.7451 102.287 28.2233 102.026" fill="#ED4C5C"/>
<path d="M30.3113 79.5859H36.3128V109.333H30.3113V79.5859Z" fill="white"/>
<path d="M42.575 90.5453C41.2703 90.0234 38.9219 89.5016 36.3125 89.5016C35.5297 89.5016 34.4859 89.5016 33.4422 89.7625C29.7891 90.2844 26.9188 91.85 27.1797 92.8937L25.875 90.0234C25.6141 88.7187 28.7453 87.1531 32.6594 86.3703C33.9641 86.1094 35.2688 86.1094 36.3125 86.1094C38.9219 86.1094 41.2703 86.3703 42.575 86.8922V90.5453" fill="#ED4C5C"/>
<path d="M30.3112 94.4594C28.7455 94.4594 27.4409 93.9375 27.4409 93.1547C27.4409 92.6328 27.9627 91.85 29.0065 91.3281H30.5721L30.3112 94.4594Z" fill="#ED4C5C"/>
<path d="M36.3125 92.1108C37.3563 92.3718 38.1391 92.6327 38.6609 92.8936C38.9219 93.1546 37.8781 94.1983 36.3125 94.9811V92.1108" fill="#ED4C5C"/>
<path d="M26.3969 100.199C26.1359 99.6774 27.9625 98.6337 30.3109 97.8509C31.3547 97.5899 32.1375 97.0681 33.4422 96.5462C36.5734 95.2415 39.1828 93.4149 38.6609 92.8931L39.1828 96.0243C39.4437 96.5462 37.3562 98.1118 34.225 99.6774C33.1812 100.199 31.3547 100.982 30.3109 101.243C28.4844 101.765 26.9187 102.809 26.9187 103.07L26.3969 100.199" fill="#ED4C5C"/>
<path d="M85.1082 74.8892H93.4581V79.586H85.1082V74.8892Z" fill="#C8B100"/>
<path d="M84.847 109.333H93.458V113.769H84.847V109.333Z" fill="#C8B100"/>
<path d="M94.2403 102.026C95.0231 102.548 95.545 103.07 95.545 103.331C95.545 103.592 95.284 103.852 94.7622 104.113C94.2403 104.635 93.7184 105.418 93.9793 105.679C93.4575 105.157 93.1965 104.635 93.1965 104.113C93.1965 103.07 93.7184 102.287 94.2403 102.026" fill="#ED4C5C"/>
<path d="M86.1517 79.5859H92.1533V109.333H86.1517V79.5859Z" fill="white"/>
<path d="M79.8885 90.5453C81.1932 90.0234 83.5417 89.5016 86.1511 89.5016C86.9339 89.5016 87.9776 89.5016 89.0214 89.7625C92.6745 90.2844 95.5448 91.85 95.2839 92.8937L96.5886 89.7625C96.8495 88.4578 93.7182 86.8922 89.8042 86.1094H86.1511C83.5417 86.1094 81.1932 86.3703 79.8885 86.8922V90.5453" fill="#ED4C5C"/>
<path d="M92.1528 94.4594C93.7184 94.4594 95.0231 93.9375 95.0231 93.1547C95.0231 92.6328 94.5012 91.85 93.4575 91.3281H91.8918L92.1528 94.4594Z" fill="#ED4C5C"/>
<path d="M86.1513 92.1108C85.1076 92.3718 84.3248 92.6327 83.8029 92.8936C83.542 93.1546 84.5857 94.1983 86.1513 94.9811V92.1108" fill="#ED4C5C"/>
<path d="M96.0666 100.2C96.3275 99.6779 94.501 98.6342 92.1525 97.8514C91.1088 97.5904 90.326 97.0686 89.0213 96.5467C85.89 95.242 83.2806 93.4154 83.8025 92.8936L83.2806 96.0248C83.0197 96.5467 85.1072 98.1123 88.2385 99.6779C89.2822 100.2 91.1088 100.983 92.1525 101.244C93.9791 101.765 95.5447 103.07 95.2838 103.331L96.0666 100.2" fill="#ED4C5C"/>
<path d="M61.1012 58.189C66.059 58.189 76.2356 59.2327 79.8887 62.8858C75.9747 72.2796 69.7122 68.3655 61.1012 68.3655C52.7512 68.3655 46.2278 72.2796 42.3137 62.8858C45.9668 59.2327 55.8825 58.189 61.1012 58.189Z" fill="#ED4C5C"/>
<path d="M73.8868 68.6266C70.7556 66.8 66.0587 66.5391 61.1009 66.5391C56.1431 66.5391 51.4462 67.0609 48.3149 68.6266L49.3587 73.0625C52.229 73.8453 56.404 74.3672 61.1009 74.3672C65.7978 74.3672 69.7118 73.8453 72.8431 73.0625L73.8868 68.6266Z" fill="#C8B100"/>
<path d="M78.3231 57.4063C77.2793 56.6234 75.1918 55.8406 73.3653 55.8406C72.5825 55.8406 71.7997 55.8406 71.0168 56.1016C71.0168 56.1016 69.4512 54.0141 65.7981 54.0141C64.4934 54.0141 63.4497 54.275 62.4059 54.7969V54.5359C62.145 54.0141 61.6231 53.4922 61.1012 53.4922C60.5793 53.4922 59.7965 54.275 59.7965 54.7969V55.0578C58.7528 54.5359 57.709 54.275 56.4043 54.275C52.7512 54.275 51.1856 56.6234 51.1856 56.3625C50.4028 56.1016 49.62 56.1016 48.8372 56.1016C36.834 56.1016 42.8356 64.1906 42.8356 64.1906L44.1403 62.625C41.27 58.9719 43.8793 56.8844 49.0981 56.8844C49.8809 56.8844 50.4028 56.8844 50.9247 57.1453C49.0981 59.7547 52.4903 62.1031 52.4903 62.1031L53.2731 60.7984C51.4465 59.4937 51.1856 55.0578 56.4043 55.0578C57.709 55.0578 58.7528 55.3188 59.7965 56.1016C59.7965 56.3625 59.5356 60.0156 59.2747 60.5375L61.3622 62.3641L63.4497 60.5375C63.1887 59.7547 62.9278 56.3625 62.9278 56.1016C63.7106 55.5797 65.0153 55.0578 66.32 55.0578C71.7997 55.0578 71.7997 59.4937 69.4512 60.7984L70.234 62.1031C70.234 62.1031 73.1043 59.7547 71.7997 57.1453C72.3215 57.1453 73.1043 56.8844 73.6262 56.8844C79.8887 56.8844 80.1497 61.5813 78.584 62.625L79.6278 64.1906C79.1059 64.1906 81.9762 60.5375 78.3231 57.4063" fill="#C8B100"/>
<path d="M59.5358 52.4484C59.5358 51.6656 60.3186 50.8828 61.1014 50.8828C62.1451 50.8828 62.667 51.6656 62.667 52.4484C62.667 53.2313 61.8842 54.0141 61.1014 54.0141C60.3186 54.0141 59.5358 53.2313 59.5358 52.4484Z" fill="#005BBF"/>
<path d="M60.5795 48.0132V48.796H59.7967V49.5788H60.5795V52.1882H59.5358V52.971H62.667L62.928 52.4491L62.667 52.1882H61.6233V49.5788H62.4061V48.796H61.6233V48.0132H60.5795Z" fill="#C8B100"/>
<path d="M61.1014 73.8452C56.9264 73.8452 53.2733 73.3233 50.403 72.5405C53.2733 71.7577 56.9264 71.2358 61.1014 71.2358C65.2764 71.2358 68.9295 71.7577 71.7998 72.5405C69.1905 73.3233 65.2764 73.8452 61.1014 73.8452Z" fill="#ED4C5C"/>
<path d="M61.3623 118.987C56.4045 118.987 51.7076 117.682 47.5326 115.856C44.4014 114.29 42.5748 111.42 42.5748 108.027V95.5024H80.1498V108.027C80.1498 111.42 78.0623 114.551 75.192 115.856C71.017 117.943 66.3201 118.987 61.3623 118.987Z" fill="white"/>
<path d="M61.1016 74.6274H79.8891V95.5024H61.1016V74.6274Z" fill="white"/>
<path d="M61.3623 108.027C61.3623 112.985 57.1873 116.899 51.9686 116.899C46.7498 116.899 42.5748 112.985 42.5748 108.027V95.5024H61.3623V108.027Z" fill="#ED4C5C"/>
<path d="M46.4889 115.335C47.0108 115.596 47.7936 116.118 48.8373 116.379V94.9819H46.7498L46.4889 115.335Z" fill="#C8B100"/>
<path d="M42.3137 107.768C42.3137 110.377 43.3575 112.465 44.4012 113.508V94.9819H42.3137V107.768Z" fill="#C8B100"/>
<path d="M50.6641 116.901H52.7516V94.9819H50.6641V116.901Z" fill="#C7B500"/>
<path d="M54.8392 116.379C55.622 116.118 56.6658 115.596 57.1877 115.335V94.9819H55.1002L54.8392 116.379" fill="#C8B100"/>
<path d="M42.3137 74.6274H61.1012V95.5024H42.3137V74.6274Z" fill="#ED4C5C"/>
<path d="M59.2747 113.508C60.3184 112.725 61.1012 110.898 61.3622 108.811V95.2422H59.2747V113.508Z" fill="#C8B100"/>
<path d="M80.1502 95.5024V108.027C80.1502 112.985 75.9752 116.899 70.7564 116.899C65.5377 116.899 61.3627 112.985 61.3627 108.027V95.5024H80.1502" fill="#ED4C5C"/>
<path d="M73.3659 78.281C74.1487 79.8466 74.1487 83.7607 71.8002 82.9779C72.3221 83.2388 72.5831 85.0654 73.3659 86.1091C74.6706 87.6748 76.2362 86.3701 75.9753 84.5435C75.4534 81.6732 75.7143 79.8466 76.2362 76.9763C76.2362 77.2373 77.5409 77.2373 78.0628 76.7154C77.8018 77.4982 77.5409 78.542 78.0628 78.542C77.5409 79.3248 76.2362 80.6295 75.9753 81.4123C75.7143 83.2388 78.5846 86.631 75.4534 87.4138C73.3659 87.9357 74.6706 89.5013 75.4534 90.2841C75.4534 90.2841 74.4096 93.6763 74.9315 93.4154C72.844 94.1982 73.3659 92.3716 73.3659 92.3716C74.4096 89.2404 71.5393 88.9795 71.8002 88.4576C69.1909 88.1966 72.0612 90.806 69.7127 90.806C69.1909 90.806 68.1471 91.3279 68.1471 91.3279C65.2768 91.067 66.8424 88.4576 67.8862 88.7185C68.669 88.9795 69.4518 90.2841 69.4518 88.4576C69.4518 88.4576 68.1471 86.3701 71.5393 86.3701C70.2346 86.3701 69.4518 85.3263 68.9299 84.0216C68.4081 84.2826 67.6252 85.5873 64.7549 85.8482C64.7549 85.8482 63.9721 82.9779 64.7549 83.4998C65.7987 84.0216 66.3206 84.0216 67.3643 82.9779C66.8424 82.1951 63.7112 81.1513 64.2331 79.3248C64.2331 78.8029 65.7987 78.0201 65.7987 78.0201C65.5377 79.3248 66.3206 80.6295 67.8862 80.6295C69.9737 80.8904 69.1909 80.1076 69.4518 79.5857C69.7127 79.0638 71.2784 79.8466 70.7565 78.542C70.7565 78.281 68.9299 78.0201 69.4518 77.2373C70.4956 75.9326 72.0612 76.9763 73.3659 78.281" fill="#ED4C5C"/>
<path d="M61.3623 116.378L60.8405 115.073L61.3623 113.508L61.8842 115.073L61.3623 116.378Z" fill="#ED4C5C"/>
<path d="M48.0545 79.0641V80.3687H48.5764V81.4125H47.2717V84.0219H48.0545V89.7625H46.4889V92.6328H57.1873V89.7625H55.8826V84.0219H56.4045V81.4125H55.0998V80.3687H55.8826V79.0641H53.2733V80.3687H53.7951V81.4125H52.4905V78.2812H53.2733V76.9766H50.403V78.2812H51.1858V81.4125H49.8811V80.3687H50.403V79.0641H48.0545Z" fill="#C8B100"/>
<path d="M77.5408 111.159V98.1118H63.972V111.159L70.2345 114.029H71.0174L77.5408 111.159ZM70.2345 99.1556V103.592L65.7986 99.1556H70.2345ZM64.7549 99.4165L69.9736 104.635L64.7549 109.854V99.4165ZM65.2767 110.898L70.2345 105.94V113.246L65.2767 110.898ZM71.0174 112.985V105.679L75.9752 110.637L71.0174 112.985ZM76.497 109.854L71.2783 104.635L76.497 99.4165V109.854ZM71.0174 99.1556H75.4533L71.0174 103.592V99.1556Z" fill="#C8B100"/>
<path d="M55.1003 95.2429C55.1003 91.3288 57.7097 88.4585 61.1019 88.4585C64.4941 88.4585 67.1035 91.5897 67.1035 95.2429C67.1035 98.896 64.4941 102.027 61.1019 102.027C57.7097 102.027 55.1003 99.1569 55.1003 95.2429Z" fill="#ED4C5C"/>
<path d="M56.9264 95.2415C56.9264 92.3712 58.753 90.2837 61.1014 90.2837C63.4498 90.2837 65.2764 92.6321 65.2764 95.2415C65.2764 98.1118 63.4498 100.199 61.1014 100.199C59.0139 100.46 56.9264 98.1118 56.9264 95.2415Z" fill="#005BBF"/>
<path d="M59.2748 91.8501L58.2311 94.7204L59.0139 94.9814L58.492 96.0251H60.0576L59.5358 94.9814L60.3186 94.7204L59.2748 91.8501" fill="#C8B100"/>
<path d="M63.1889 91.8501L62.1451 94.7204L62.928 94.9814L62.4061 96.0251H63.9717L63.7108 94.9814L64.4936 94.7204L63.1889 91.8501" fill="#C8B100"/>
<path d="M61.3627 95.2422L60.058 98.1125L60.8408 98.3734L60.5799 99.4172H61.8845L61.6236 98.3734L62.4064 98.1125L61.3627 95.2422Z" fill="#C8B100"/>
</g>
<defs>
<filter id="filter0_d" x="-5" y="-3" width="187" height="187" filterUnits="userSpaceOnUse" color-interpolation-filters="sRGB">
<feFlood flood-opacity="0" result="BackgroundImageFix"/>
<feColorMatrix in="SourceAlpha" type="matrix" values="0 0 0 0 0 0 0 0 0 0 0 0 0 0 0 0 0 0 127 0" result="hardAlpha"/>
<feOffset dy="7"/>
<feGaussianBlur stdDeviation="5"/>
<feColorMatrix type="matrix" values="0 0 0 0 0 0 0 0 0 0 0 0 0 0 0 0 0 0 0.25 0"/>
<feBlend mode="normal" in2="BackgroundImageFix" result="effect1_dropShadow"/>
<feBlend mode="normal" in="SourceGraphic" in2="effect1_dropShadow" result="shape"/>
</filter>
</defs>
</svg>
